<svg display="none" xmlns="http://www.w3.org/2000/svg" >

  <symbol id="htmlacademy" viewBox="10 5 40 50">
      <path d="M30.2 5h-.2l-19.7 2.1v36.2l19.7 11.7 19.7-11.7v-36.2l-19.5-2.1zm17 36.8l-17.2 10.2-17.2-10.2v-14.8l17.1 10.2v1.8l-11.7-7v1.8l11.8 7.1v1.9l-11.8-7v1.8l11.8 7 11.9-7.1v-7.6l5.3-3.2v15.1zm-.1-17l-4.7 2.8-2.2 1.3-10.3-6.1v1.8l8.8 5.3h-.1l-.2.1-1.3.7-7.3-4.3v1.8l5.8 3.4-1.4.9-4.3-2.6v1.8l2.9 1.7-2.9 1.7-17-10.1 17-10.2 17.2 10zm.1-1.8l-17.3-10.2-17.1 10.2v-13.6l17.2-1.8 17.2 1.8v13.6z"/>
  </symbol>

  <symbol id="replay">
      <path d="M8 4V0L3 5l5 5V6c3.3 0 6 2.7 6 6s-2.7 6-6 6-6-2.7-6-6H0c0 4.4 3.6 8 8 8s8-3.6 8-8-3.6-8-8-8z"/>
  </symbol>

  <symbol id="subtitles">
      <path d="M29 0H3C1.3 0 0 1.3 0 3v14c0 1.7 1.3 3 3 3h26c1.7 0 3-1.3 3-3V3c0-1.7-1.3-3-3-3zM14.4 15.9c-.5.1-1.1.1-1.7.1-.7 0-1.4-.1-2-.3-.6-.2-1.2-.6-1.6-1-.4-.4-.8-1.1-1.1-1.9-.3-.8-.4-1.7-.4-2.8 0-1.1.2-2.1.5-2.9.3-.8.7-1.4 1.2-1.9s1.1-.8 1.7-1a9.9 9.9 0 013.5-.1c.5.1.8.2 1.1.3l-.4 1.9-.9-.3H13c-.9 0-1.6.3-2.2 1-.6.7-.8 1.7-.8 3 0 .6.1 1.1.2 1.6s.3.9.6 1.3c.3.3.6.6 1 .8.4.2.9.3 1.4.3.5 0 .9 0 1.3-.1.3-.1.6-.2.9-.4l.5 1.8c-.5.3-1 .4-1.5.6zm8.7 0c-.5.1-1.1.1-1.7.1-.7 0-1.4-.1-2-.3-.6-.2-1.2-.6-1.6-1a4 4 0 01-1.1-1.9c-.3-.8-.4-1.7-.4-2.8 0-1.1.2-2.1.5-2.9.3-.8.7-1.4 1.2-1.9s1.1-.8 1.7-1a9.9 9.9 0 013.5-.1c.5.1.8.2 1.1.3l-.4 1.9L23 6h-1.3c-.9 0-1.6.3-2.2 1-.6.7-.8 1.7-.8 3 0 .6.1 1.1.2 1.6s.3.9.6 1.3c.3.3.6.6 1 .8.4.2.9.3 1.4.3.5 0 .9 0 1.3-.1.3-.1.6-.2.9-.4l.5 1.8c-.5.3-1 .4-1.5.6z"/>
  </symbol>

  <symbol id="fullscreen">
      <path d="M0 0v6h3V3h3V0H0zM3 14H0v6h6v-3H3v-3zM17 0h-3v3h3v3h3V0h-3zM17 17h-3v3h6v-6h-3v3z"/>
  </symbol>

  <symbol id="icon-facebook">
      <path d="M6.3 3.4h2.4V0H5.8C2.7.2 1.5 2.4 1.9 6.1H0v3.5h2v9.3h3.8V9.6h2.9V6.1H5.8c0-1 0-2.4.5-2.7z" />
  </symbol>

  <symbol id="icon-twitter">
    <path d="M11.3.17c1.7-.5 3.1.2 3.7 1.1.7-.2 1.4-.5 2.1-.7 0 .8-.5 1.5-.9 1.7.7.2 1.3-.5 1.3-.5-.2 1-1 1.7-1.6 2-.2 6.6-3.3 11-10.4 10.8H5c-.4 0-4.3-.4-5-1.8 2.3.2 4-.4 4.8-1.1-1-.3-2.8-.5-3.1-2.9.4.1.6.2 1.3.1-1.2-.8-2.6-1.5-2.5-3.7.3.3 1.1.5 1.4.5-.7-.2-2-3.3-.9-4.8 1.9 1.8 3.8 3.5 7.4 3.7.1-2.3 1.1-3.8 2.9-4.4z"/>
  </symbol>

  <symbol id="icon-youtube">
    <path d="M17.1 0H2.8C1.3 0 0 1.3 0 2.8v8.3C0 12.7 1.3 14 2.8 14h14.3c1.6 0 2.8-1.3 2.8-2.8V2.8C20 1.3 18.7 0 17.1 0zM7 10.4V3.6L13.8 7 7 10.4z"/>
  </symbol>

  <symbol id="like-icon">
    <path d="M12.96 3.78l-.62 3.05-.63 2.62h9.09v2.2l-3.03 7.25h-9.4V8.4l4.6-4.62zM2.1 10.5v8.4-8.4zM13.8 0L6.9 6.93c-.42.32-.63.84-.63 1.47v10.5c0 1.16.94 2.1 2.1 2.1h9.4c.84 0 1.57-.52 1.88-1.26l3.14-7.45c.1-.21.1-.53.1-.74v-2.1H23a2.1 2.1 0 00-2.1-2.1h-6.58l1.05-4.83v-.31c0-.43-.21-.84-.42-1.16L13.8 0zM4.18 8.4H0V21h4.18V8.4z"/>
  </symbol>

</svg>
